<svg width="57" height="46" viewBox="0 0 57 46" fill="none" xmlns="http://www.w3.org/2000/svg">
<path d="M18.407 45.13C39.367 45.13 50.8329 27.7628 50.8329 12.7284C50.8329 12.2424 50.8329 11.7495 50.8121 11.2635C53.0444 9.64751 54.971 7.64685 56.5016 5.35523C54.4164 6.27462 52.2067 6.88057 49.9442 7.15339C52.3274 5.72888 54.1124 3.48754 54.9673 0.845945C52.7282 2.17243 50.2775 3.10362 47.7226 3.59873C46.0049 1.76941 43.7319 0.557537 41.2557 0.150832C38.7795 -0.255872 36.2384 0.165287 34.0258 1.34907C31.8132 2.53286 30.0527 4.41321 29.017 6.69886C27.9813 8.9845 27.7282 11.5479 28.2969 13.992C23.7659 13.7648 19.3332 12.5877 15.2864 10.5371C11.2396 8.48646 7.66899 5.6081 4.80622 2.08869C3.3529 4.59877 2.90938 7.56788 3.56572 10.3931C4.22206 13.2183 5.92905 15.6878 8.34006 17.3002C6.53336 17.2388 4.76637 16.7536 3.18163 15.8838V16.0401C3.18474 18.6695 4.09566 21.2173 5.7604 23.2527C7.42515 25.2881 9.74161 26.6863 12.3182 27.2109C11.3402 27.4803 10.3299 27.6146 9.31551 27.6101C8.60035 27.6122 7.88663 27.546 7.1841 27.4122C7.91234 29.6757 9.33034 31.6548 11.2395 33.0722C13.1486 34.4896 15.4533 35.2743 17.8307 35.3165C13.792 38.4886 8.80314 40.209 3.66762 40.2007C2.76271 40.2045 1.85843 40.1523 0.959961 40.0445C6.17225 43.3675 12.2255 45.1319 18.407 45.13V45.13Z" fill="#484848"/>
</svg>
