<svg width="62" height="61" viewBox="0 0 62 61" fill="none" xmlns="http://www.w3.org/2000/svg">
<path d="M0.501587 4.36913C0.501587 1.95581 2.50696 0 4.98127 0H57.0219C59.4962 0 61.5016 1.95581 61.5016 4.36913V56.6309C61.5016 59.0442 59.4962 61 57.0219 61H4.98127C2.50696 61 0.501587 59.0442 0.501587 56.6309V4.36913ZM19.3468 51.0646V23.5193H10.193V51.0646H19.3468ZM14.7718 19.7564C17.9628 19.7564 19.9491 17.6443 19.9491 14.9984C19.892 12.2953 17.9666 10.2404 14.8328 10.2404C11.6989 10.2404 9.65159 12.2991 9.65159 14.9984C9.65159 17.6443 11.6379 19.7564 14.7108 19.7564H14.7718V19.7564ZM33.4835 51.0646V35.6812C33.4835 34.8577 33.5445 34.0342 33.7885 33.4471C34.4481 31.8039 35.954 30.0997 38.4855 30.0997C41.7986 30.0997 43.1215 32.6236 43.1215 36.3293V51.0646H52.2753V35.2656C52.2753 26.8019 47.7613 22.8674 41.7376 22.8674C36.8805 22.8674 34.7035 25.5361 33.4835 27.4157V27.511H33.4225C33.4428 27.4792 33.4631 27.4474 33.4835 27.4157V23.5193H24.3335C24.4479 26.1042 24.3335 51.0646 24.3335 51.0646H33.4835Z" fill="#484848"/>
</svg>
