<svg width="58" height="57" viewBox="0 0 58 57" fill="none" xmlns="http://www.w3.org/2000/svg">
<path d="M28.98 0C12.9685 0 0 12.9685 0 28.9799C0 41.8035 8.29551 52.6348 19.8151 56.4746C21.264 56.7282 21.8074 55.8588 21.8074 55.0981C21.8074 54.4098 21.7712 52.1276 21.7712 49.7006C14.49 51.0409 12.6063 47.9256 12.0267 46.2954C11.7007 45.4623 10.2879 42.8903 9.05624 42.202C8.04194 41.6586 6.59294 40.3183 9.02001 40.2821C11.3022 40.2459 12.9323 42.3831 13.4757 43.2525C16.0839 47.6358 20.2498 46.4041 21.9161 45.6434C22.1697 43.7597 22.9304 42.4918 23.7636 41.7673C17.3155 41.0428 10.5777 38.5433 10.5777 27.4585C10.5777 24.3069 11.7007 21.6987 13.5481 19.6701C13.2583 18.9456 12.244 15.9752 13.8379 11.9904C13.8379 11.9904 16.265 11.2297 21.8074 14.9609C24.1258 14.3088 26.5891 13.9828 29.0524 13.9828C31.5157 13.9828 33.979 14.3088 36.2974 14.9609C41.8398 11.1935 44.2669 11.9904 44.2669 11.9904C45.8608 15.9752 44.8465 18.9456 44.5567 19.6701C46.4042 21.6987 47.5271 24.2707 47.5271 27.4585C47.5271 38.5795 40.7531 41.0428 34.305 41.7673C35.3556 42.6729 36.2612 44.4117 36.2612 47.1286C36.2612 51.0047 36.225 54.12 36.225 55.0981C36.225 55.8588 36.7683 56.7644 38.2173 56.4746C43.9707 54.5329 48.9701 50.8357 52.5118 45.9033C56.0534 40.971 57.9589 35.0521 57.9599 28.9799C57.9599 12.9685 44.9914 0 28.98 0Z" fill="#484848"/>
</svg>
